<svg xmlns="http://www.w3.org/2000/svg" viewBox="0 0 16 16">
  <path d="M1.5 1a.5.5 0 0 0-.5.5v4a.5.5 0 0 1-1 0v-4A1.5 1.5 0 0 1 1.5 0h4a.5.5 0 0 1 0 1zM10 .5a.5.5 0 0 1 .5-.5h4A1.5 1.5 0 0 1 16 1.5v4a.5.5 0 0 1-1 0v-4a.5.5 0 0 0-.5-.5h-4a.5.5 0 0 1-.5-.5M.5 10a.5.5 0 0 1 .5.5v4a.5.5 0 0 0 .5.5h4a.5.5 0 0 1 0 1h-4A1.5 1.5 0 0 1 0 14.5v-4a.5.5 0 0 1 .5-.5m15 0a.5.5 0 0 1 .5.5v4a1.5 1.5 0 0 1-1.5 1.5h-4a.5.5 0 0 1 0-1h4a.5.5 0 0 0 .5-.5v-4a.5.5 0 0 1 .5-.5"/>
  <path d="M 7.1210938 4 A 1.5 1.5 0 0 0 6.0605469 4.4394531 L 5.4394531 5.0605469 A 1.5 1.5 0 0 1 4.3789062 5.5 L 3.5 5.5 A 1.5 1.5 0 0 0 2 7 L 2 11.5 A 1.5 1.5 0 0 0 3.5 13 L 12.5 13 A 1.5 1.5 0 0 0 14 11.5 L 14 7 A 1.5 1.5 0 0 0 12.5 5.5 L 11.621094 5.5 A 1.5 1.5 0 0 1 10.560547 5.0605469 L 9.9394531 4.4394531 A 1.5 1.5 0 0 0 8.8789062 4 L 7.1210938 4 z M 7.1203125 4.75 L 8.8783203 4.75 A 0.75 0.75 0 0 1 9.4085937 4.9697266 L 10.029492 5.5908203 A 2.25 2.25 0 0 0 11.621094 6.25 L 12.5 6.25 A 0.75 0.75 0 0 1 13.25 7 L 13.25 11.5 A 0.75 0.75 0 0 1 12.5 12.25 L 3.5 12.25 A 0.75 0.75 0 0 1 2.75 11.5 L 2.75 7 A 0.75 0.75 0 0 1 3.5 6.25 L 4.3789062 6.25 A 2.25 2.25 0 0 0 5.9689453 5.5908203 L 6.5914063 4.9697266 A 0.75 0.75 0 0 1 7.1203125 4.75 z M 8 6.25 A 2.625 2.625 0 0 0 8 11.5 A 2.625 2.625 0 0 0 8 6.25 z M 3.8730469 7 A 0.375 0.375 0 0 0 3.8494141 7.0007813 A 0.375 0.375 0 0 0 3.5 7.375 A 0.375 0.375 0 0 0 4.25 7.375 A 0.375 0.375 0 0 0 3.8730469 7 z M 8 7 A 1.875 1.875 0 0 1 8 10.75 A 1.875 1.875 0 0 1 8 7 z "/>
</svg>