<?xml version="1.0" encoding="UTF-8" standalone="no"?>
<svg
   viewBox="0 0 16 16"
   version="1.1"
   id="svg6704"
   sodipodi:docname="slide-edit2.svg"
   inkscape:version="1.2.1 (9c6d41e410, 2022-07-14)"
   xmlns:inkscape="http://www.inkscape.org/namespaces/inkscape"
   xmlns:sodipodi="http://sodipodi.sourceforge.net/DTD/sodipodi-0.dtd"
   xmlns="http://www.w3.org/2000/svg"
   xmlns:svg="http://www.w3.org/2000/svg">
  <defs
     id="defs6708" />
  <sodipodi:namedview
     id="namedview6706"
     pagecolor="#ffffff"
     bordercolor="#000000"
     borderopacity="0.25"
     inkscape:showpageshadow="2"
     inkscape:pageopacity="0.0"
     inkscape:pagecheckerboard="0"
     inkscape:deskcolor="#d1d1d1"
     showgrid="false"
     inkscape:zoom="50.375"
     inkscape:cx="8"
     inkscape:cy="8"
     inkscape:window-width="1920"
     inkscape:window-height="1009"
     inkscape:window-x="1912"
     inkscape:window-y="-8"
     inkscape:window-maximized="1"
     inkscape:current-layer="svg6704" />
  <path
     d="m 11.108956,2.1101655 a 0.3749836,0.3749836 0 0 1 0.530977,0 l 2.249902,2.2499016 a 0.3749836,0.3749836 0 0 1 0,0.5309768 L 6.3901623,12.390716 a 0.3749836,0.3749836 0 0 1 -0.1259944,0.0825 L 2.5143318,13.973147 A 0.3749836,0.3749836 0 0 1 2.0268531,13.485668 L 3.5267876,9.7358321 A 0.3749836,0.3749836 0 0 1 3.609284,9.6098376 Z M 10.404737,3.8755883 12.124412,5.5952631 13.094119,4.6255555 11.374444,2.9058807 Z M 11.594185,6.1254899 9.87451,4.4058151 4.9997232,9.280602 V 9.5003424 H 5.3747068 A 0.3749836,0.3749836 0 0 1 5.7496904,9.875326 V 10.25031 H 6.124674 a 0.3749836,0.3749836 0 0 1 0.3749836,0.374983 v 0.374984 h 0.2197403 z m -7.3204301,3.8810801 -0.079497,0.0795 -1.1459499,2.865625 2.8656247,-1.14595 0.079497,-0.0795 A 0.3749836,0.3749836 0 0 1 5.7496904,11.37526 V 11.000277 H 5.3747068 A 0.3749836,0.3749836 0 0 1 4.9997232,10.625293 V 10.25031 H 4.6247395 A 0.3749836,0.3749836 0 0 1 4.2737549,10.00657"
     id="path6702"
     style="stroke-width:0.749967" />
</svg>
